PathFileType	3	(X/Y/Z)	squats_1__fused_aligned.trc
DataRate	CameraRate	NumFrames	NumMarkers	Units	OrigDataRate	OrigDataStartFrame	OrigNumFrames
100.0	100.0	13	19	mm	100.0	1371	1650
Frame#	Time	pelvis			neck			head			hip_left			hip_right			knee_left			knee_right			ankle_left			ankle_right			heel_left			heel_right			toe_left			toe_right			shoulder_left			shoulder_right			elbow_left			elbow_right			wrist_left			wrist_right			
		X1	Y1	Z1	X2	Y2	Z2	X3	Y3	Z3	X4	Y4	Z4	X5	Y5	Z5	X6	Y6	Z6	X7	Y7	Z7	X8	Y8	Z8	X9	Y9	Z9	X10	Y10	Z10	X11	Y11	Z11	X12	Y12	Z12	X13	Y13	Z13	X14	Y14	Z14	X15	Y15	Z15	X16	Y16	Z16	X17	Y17	Z17	X18	Y18	Z18	X19	Y19	Z19	
1371	13.70000	70.848213	763.857887	109.556908	60.641059	1278.991108	-148.866516	54.526787	1420.770054	-267.025309	-8.016713	765.718817	116.377730	149.713360	761.996956	102.736045	-141.074372	460.526124	-147.031001	196.631094	417.528407	-155.189666	-116.322744	145.219962	106.493705	205.553426	85.548739	77.835915	-107.476920	110.659291	154.558462	205.108239	52.544382	128.472783	-148.087815	58.384355	-54.788159	209.381923	-17.580090	-83.659372	-121.491693	1226.712985	-97.451592	247.303475	1215.016229	-124.617660	-217.397131	951.089285	-69.386438	319.882660	929.646051	-105.335340	-197.532147	734.427367	-196.579090	299.125418	706.424891	-219.387965
1372	13.71000	71.451996	774.439058	107.401922	61.227750	1291.906429	-148.335163	55.096934	1434.340382	-266.175772	-7.358738	776.282750	114.334307	150.262948	772.595364	100.469483	-139.969948	463.223463	-141.166513	195.826862	423.418574	-151.678423	-116.575552	145.071698	108.751461	206.146045	88.627170	77.972888	-107.828148	110.162554	156.561057	205.899871	55.228629	128.349668	-148.195719	58.657766	-53.210833	209.632242	-13.805074	-84.363866	-120.958534	1239.070770	-96.732982	248.030278	1227.521027	-123.862260	-215.629716	962.917118	-65.400316	319.920867	941.627115	-102.727018	-197.867992	742.537574	-188.211940	301.402277	714.640691	-213.221564
1373	13.72000	72.055780	785.020228	105.246935	61.814441	1304.821750	-147.803811	55.667082	1447.910710	-265.326235	-6.700763	786.846683	112.290884	150.812535	783.193772	98.202922	-138.865524	465.920802	-135.302025	195.022631	429.308741	-148.167180	-116.828360	144.923434	111.009216	206.738664	91.705601	78.109861	-108.179376	109.665816	158.563651	206.691503	57.912876	128.226552	-148.303622	58.931177	-51.633508	209.882561	-10.030059	-85.068360	-120.425375	1251.428556	-96.014372	248.757081	1240.025826	-123.106859	-213.862302	974.744952	-61.414194	319.959075	953.608178	-100.118696	-198.203838	750.647781	-179.844789	303.679136	722.856491	-207.055164
1374	13.73000	72.659563	795.601398	103.091949	62.401132	1317.737071	-147.272458	56.237229	1461.481039	-264.476698	-6.042788	797.410616	110.247461	151.362123	793.792180	95.936360	-137.761100	468.618141	-129.437537	194.218399	435.198908	-144.655937	-117.081168	144.775171	113.266972	207.331282	94.784032	78.246833	-108.530604	109.169079	160.566246	207.483135	60.597123	128.103437	-148.411526	59.204588	-50.056182	210.132879	-6.255044	-85.772854	-119.892216	1263.786342	-95.295763	249.483884	1252.530625	-122.351459	-212.094887	986.572786	-57.428071	319.997282	965.589241	-97.510374	-198.539684	758.757988	-171.477639	305.955995	731.072291	-200.888763
1375	13.74000	74.123952	803.886048	99.560822	63.895174	1328.097005	-146.920799	57.804717	1472.204132	-263.941356	-4.504097	805.635120	106.755809	152.752211	802.136975	92.365759	-134.715027	471.277037	-123.890280	194.704481	439.135107	-140.511394	-115.767971	144.494591	114.362200	208.606019	96.254997	78.535339	-107.385864	108.492653	161.356160	208.838276	61.694051	128.089746	-146.841501	59.583135	-49.774896	211.327331	-4.079686	-86.196391	-118.362970	1273.790367	-94.885569	250.973190	1262.706700	-121.806439	-209.051628	996.316068	-54.445104	321.436254	975.792639	-95.068931	-197.195707	766.083150	-164.446677	309.948281	738.625491	-195.509913
1376	13.75000	75.588341	812.170698	96.029694	65.389217	1338.456938	-146.569140	59.372205	1482.927226	-263.406014	-2.965407	813.859625	103.264157	154.142299	810.481771	88.795157	-131.668955	473.935934	-118.343023	195.190564	443.071306	-136.366850	-114.454775	144.214012	115.457429	209.880756	97.725962	78.823845	-106.241124	107.816227	162.146073	210.193416	62.790979	128.076055	-145.271475	59.961682	-49.493610	212.521783	-1.904329	-86.619928	-116.833724	1283.794391	-94.475376	252.462496	1272.882775	-121.261420	-206.008369	1006.059350	-51.462137	322.875225	985.996037	-92.627488	-195.851731	773.408312	-157.415716	313.940566	746.178692	-190.131063
1377	13.76000	77.052730	820.455348	92.498567	66.883259	1348.816872	-146.217482	60.939693	1493.650319	-262.870671	-1.426717	822.084130	99.772505	155.532387	818.826566	85.224556	-128.622882	476.594830	-112.795765	195.676646	447.007504	-132.222307	-113.141579	143.933433	116.552657	211.155493	99.196928	79.112351	-105.096383	107.139801	162.935987	211.548557	63.887907	128.062364	-143.701450	60.340229	-49.212323	213.716235	0.271029	-87.043466	-115.304478	1293.798415	-94.065182	253.951802	1283.058849	-120.716401	-202.965110	1015.802631	-48.479169	324.314197	996.199435	-90.186046	-194.507754	780.733474	-150.384754	317.932852	753.731892	-184.752213
1378	13.77000	78.517119	828.739998	88.967440	68.377301	1359.176806	-145.865823	62.507181	1504.373413	-262.335329	0.111974	830.308634	96.280853	156.922476	827.171362	81.653954	-125.576809	479.253727	-107.248508	196.162728	450.943703	-128.077764	-111.828382	143.652853	117.647885	212.430231	100.667893	79.400857	-103.951643	106.463375	163.725901	212.903697	64.984834	128.048673	-142.131425	60.718776	-48.931037	214.910687	2.446386	-87.467003	-113.775232	1303.802439	-93.654989	255.441107	1293.234924	-120.171382	-199.921852	1025.545913	-45.496202	325.753168	1006.402832	-87.744603	-193.163778	788.058635	-143.353793	321.925138	761.285092	-179.373363
1379	13.78000	79.981508	837.024649	85.436312	69.871344	1369.536740	-145.514164	64.074669	1515.096506	-261.799987	1.650664	838.533139	92.789201	158.312564	835.516157	78.083352	-122.530736	481.912623	-101.701250	196.648811	454.879901	-123.933220	-110.515186	143.372274	118.743114	213.704968	102.138858	79.689363	-102.806903	105.786950	164.515815	214.258838	66.081762	128.034982	-140.561400	61.097323	-48.649751	216.105139	4.621744	-87.890540	-112.245986	1313.806464	-93.244795	256.930413	1303.410999	-119.626363	-196.878593	1035.289195	-42.513234	327.192139	1016.606230	-85.303160	-191.819801	795.383797	-136.322831	325.917424	768.838292	-173.994513
1380	13.79000	81.445897	845.309299	81.905185	71.365386	1379.896673	-145.162505	65.642157	1525.819600	-261.264645	3.189354	846.757644	89.297548	159.702652	843.860953	74.512751	-119.484663	484.571520	-96.153993	197.134893	458.816100	-119.788677	-109.201990	143.091694	119.838342	214.979705	103.609823	79.977870	-101.662163	105.110524	165.305729	215.613979	67.178690	128.021291	-138.991375	61.475870	-48.368464	217.299592	6.797102	-88.314078	-110.716740	1323.810488	-92.834602	258.419719	1313.587074	-119.081344	-193.835334	1045.032477	-39.530267	328.631111	1026.809628	-82.861718	-190.475825	802.708959	-129.291870	329.909709	776.391493	-168.615663
1381	13.80000	82.910287	853.593949	78.374058	72.859428	1390.256607	-144.810846	67.209645	1536.542694	-260.729303	4.728045	854.982148	85.805896	161.092740	852.205748	70.942149	-116.438590	487.230416	-90.606736	197.620976	462.752299	-115.644134	-107.888793	142.811115	120.933570	216.254442	105.080789	80.266376	-100.517423	104.434098	166.095643	216.969119	68.275618	128.007600	-137.421350	61.854416	-48.087178	218.494044	8.972459	-88.737615	-109.187495	1333.814512	-92.424408	259.909025	1323.763149	-118.536325	-190.792075	1054.775759	-36.547300	330.070082	1037.013026	-80.420275	-189.131848	810.034121	-122.260908	333.901995	783.944693	-163.236813
1382	13.81000	84.374676	861.878599	74.842930	74.353471	1400.616541	-144.459188	68.777133	1547.265787	-260.193960	6.266735	863.206653	82.314244	162.482828	860.550544	67.371548	-113.392518	489.889313	-85.059478	198.107058	466.688497	-111.499590	-106.575597	142.530536	122.028799	217.529179	106.551754	80.554882	-99.372683	103.757672	166.885557	218.324260	69.372546	127.993909	-135.851325	62.232963	-47.805892	219.688496	11.147817	-89.161152	-107.658249	1343.818536	-92.014215	261.398331	1333.939224	-117.991306	-187.748816	1064.519041	-33.564332	331.509054	1047.216423	-77.978832	-187.787872	817.359282	-115.229947	337.894281	791.497893	-157.857963
1383	13.82000	85.839065	870.163249	71.311803	75.847513	1410.976474	-144.107529	70.344621	1557.988881	-259.658618	7.805425	871.431158	78.822592	163.872916	868.895339	63.800946	-110.346445	492.548209	-79.512221	198.593140	470.624696	-107.355047	-105.262401	142.249956	123.124027	218.803916	108.022719	80.843388	-98.227943	103.081247	167.675471	219.679401	70.469473	127.980218	-134.281300	62.611510	-47.524605	220.882948	13.323174	-89.584690	-106.129003	1353.822561	-91.604021	262.887637	1344.115299	-117.446287	-184.705557	1074.262323	-30.581365	332.948025	1057.419821	-75.537389	-186.443895	824.684444	-108.198985	341.886567	799.051094	-152.479113
